# xmcd
#
# Track frame offsets:
#	150
#	70418
#	82641
#	130017
#	163340
#	216994
#	254690
#
# Disc length: 3803 seconds
#
# Revision: 1
# Processed by: cddbd v1.5.2PL0 Copyright (c) Steve Scherf et al.
# Submitted via: audiograbber 1.83.01
#
DISCID=620ed907
DTITLE=Grateful Dead - 78-10-21 Winterland Arena, San Francisco CA
DYEAR=1900
DGENRE=
TTITLE0=Drums
TTITLE1=Space
TTITLE2=Got My Mojo Workin'
TTITLE3=The Other One
TTITLE4=Stella Blue
TTITLE5=Sugar Magnolia
TTITLE6=US Blues
EXTD=
EXTT0=
EXTT1=
EXTT2=
EXTT3=
EXTT4=
EXTT5=
EXTT6=
PLAYORDER=
